<svg width="210" height="49" viewBox="0 0 210 49" fill="none" xmlns="http://www.w3.org/2000/svg">
<path d="M0.625 48V2.5H14.0625C18.0833 2.5 21.6458 3.39583 24.75 5.1875C27.875 6.97917 30.2917 9.52083 32 12.8125C33.7083 16.1042 34.5625 19.875 34.5625 24.125V26.4062C34.5625 30.7188 33.6979 34.5104 31.9688 37.7812C30.2604 41.0521 27.8125 43.5729 24.625 45.3438C21.4583 47.1146 17.8229 48 13.7188 48H0.625ZM8.53125 8.875V41.6875H13.6875C17.8333 41.6875 21.0104 40.3958 23.2188 37.8125C25.4479 35.2083 26.5833 31.4792 26.625 26.625V24.0938C26.625 19.1562 25.5521 15.3854 23.4062 12.7812C21.2604 10.1771 18.1458 8.875 14.0625 8.875H8.53125ZM61.9062 48C61.5729 47.3542 61.2812 46.3021 61.0312 44.8438C58.6146 47.3646 55.6562 48.625 52.1562 48.625C48.7604 48.625 45.9896 47.6562 43.8438 45.7188C41.6979 43.7812 40.625 41.3854 40.625 38.5312C40.625 34.9271 41.9583 32.1667 44.625 30.25C47.3125 28.3125 51.1458 27.3438 56.125 27.3438H60.7812V25.125C60.7812 23.375 60.2917 21.9792 59.3125 20.9375C58.3333 19.875 56.8438 19.3438 54.8438 19.3438C53.1146 19.3438 51.6979 19.7812 50.5938 20.6562C49.4896 21.5104 48.9375 22.6042 48.9375 23.9375H41.3438C41.3438 22.0833 41.9583 20.3542 43.1875 18.75C44.4167 17.125 46.0833 15.8542 48.1875 14.9375C50.3125 14.0208 52.6771 13.5625 55.2812 13.5625C59.2396 13.5625 62.3958 14.5625 64.75 16.5625C67.1042 18.5417 68.3125 21.3333 68.375 24.9375V40.1875C68.375 43.2292 68.8021 45.6562 69.6562 47.4688V48H61.9062ZM53.5625 42.5312C55.0625 42.5312 56.4688 42.1667 57.7812 41.4375C59.1146 40.7083 60.1146 39.7292 60.7812 38.5V32.125H56.6875C53.875 32.125 51.7604 32.6146 50.3438 33.5938C48.9271 34.5729 48.2188 35.9583 48.2188 37.75C48.2188 39.2083 48.6979 40.375 49.6562 41.25C50.6354 42.1042 51.9375 42.5312 53.5625 42.5312ZM95.2812 38.8125C95.2812 37.4583 94.7188 36.4271 93.5938 35.7188C92.4896 35.0104 90.6458 34.3854 88.0625 33.8438C85.4792 33.3021 83.3229 32.6146 81.5938 31.7812C77.8021 29.9479 75.9062 27.2917 75.9062 23.8125C75.9062 20.8958 77.1354 18.4583 79.5938 16.5C82.0521 14.5417 85.1771 13.5625 88.9688 13.5625C93.0104 13.5625 96.2708 14.5625 98.75 16.5625C101.25 18.5625 102.5 21.1562 102.5 24.3438H94.9062C94.9062 22.8854 94.3646 21.6771 93.2812 20.7188C92.1979 19.7396 90.7604 19.25 88.9688 19.25C87.3021 19.25 85.9375 19.6354 84.875 20.4062C83.8333 21.1771 83.3125 22.2083 83.3125 23.5C83.3125 24.6667 83.8021 25.5729 84.7812 26.2188C85.7604 26.8646 87.7396 27.5208 90.7188 28.1875C93.6979 28.8333 96.0312 29.6146 97.7188 30.5312C99.4271 31.4271 100.688 32.5104 101.5 33.7812C102.333 35.0521 102.75 36.5938 102.75 38.4062C102.75 41.4479 101.49 43.9167 98.9688 45.8125C96.4479 47.6875 93.1458 48.625 89.0625 48.625C86.2917 48.625 83.8229 48.125 81.6562 47.125C79.4896 46.125 77.8021 44.75 76.5938 43C75.3854 41.25 74.7812 39.3646 74.7812 37.3438H82.1562C82.2604 39.1354 82.9375 40.5208 84.1875 41.5C85.4375 42.4583 87.0938 42.9375 89.1562 42.9375C91.1562 42.9375 92.6771 42.5625 93.7188 41.8125C94.7604 41.0417 95.2812 40.0417 95.2812 38.8125ZM116.875 17.875C119.354 15 122.49 13.5625 126.281 13.5625C133.49 13.5625 137.146 17.6771 137.25 25.9062V48H129.656V26.1875C129.656 23.8542 129.146 22.2083 128.125 21.25C127.125 20.2708 125.646 19.7812 123.688 19.7812C120.646 19.7812 118.375 21.1354 116.875 23.8438V48H109.281V0H116.875V17.875ZM149.688 40C151.104 40 152.198 40.4062 152.969 41.2188C153.74 42.0104 154.125 43.0104 154.125 44.2188C154.125 45.4062 153.74 46.3958 152.969 47.1875C152.198 47.9583 151.104 48.3438 149.688 48.3438C148.333 48.3438 147.26 47.9583 146.469 47.1875C145.677 46.4167 145.281 45.4271 145.281 44.2188C145.281 43.0104 145.667 42.0104 146.438 41.2188C147.208 40.4062 148.292 40 149.688 40Z" fill="#109CF1"/>
<path d="M170.906 48H163.312V14.1875H170.906V48ZM162.844 5.40625C162.844 4.23958 163.208 3.27083 163.938 2.5C164.688 1.72917 165.75 1.34375 167.125 1.34375C168.5 1.34375 169.562 1.72917 170.312 2.5C171.062 3.27083 171.438 4.23958 171.438 5.40625C171.438 6.55208 171.062 7.51042 170.312 8.28125C169.562 9.03125 168.5 9.40625 167.125 9.40625C165.75 9.40625 164.688 9.03125 163.938 8.28125C163.208 7.51042 162.844 6.55208 162.844 5.40625ZM177.781 30.7812C177.781 27.4688 178.438 24.4896 179.75 21.8438C181.062 19.1771 182.906 17.1354 185.281 15.7188C187.656 14.2812 190.385 13.5625 193.469 13.5625C198.031 13.5625 201.729 15.0312 204.562 17.9688C207.417 20.9062 208.958 24.8021 209.188 29.6562L209.219 31.4375C209.219 34.7708 208.573 37.75 207.281 40.375C206.01 43 204.177 45.0312 201.781 46.4688C199.406 47.9062 196.656 48.625 193.531 48.625C188.76 48.625 184.938 47.0417 182.062 43.875C179.208 40.6875 177.781 36.4479 177.781 31.1562V30.7812ZM185.375 31.4375C185.375 34.9167 186.094 37.6458 187.531 39.625C188.969 41.5833 190.969 42.5625 193.531 42.5625C196.094 42.5625 198.083 41.5625 199.5 39.5625C200.938 37.5625 201.656 34.6354 201.656 30.7812C201.656 27.3646 200.917 24.6562 199.438 22.6562C197.979 20.6562 195.99 19.6562 193.469 19.6562C190.99 19.6562 189.021 20.6458 187.562 22.625C186.104 24.5833 185.375 27.5208 185.375 31.4375Z" fill="#1C242C"/>
</svg>
